# This file uses centimeters as units for non-parametric coordinates.

mtllib environment_base_25x25.mtl
g default
v -12.500000 -0.000000 12.500000
v 12.500000 -0.000000 12.500000
v -12.500000 0.000000 -12.500000
v 12.500000 0.000000 -12.500000
v -12.500000 2.500000 12.500000
v 12.500000 2.500000 12.500000
v -12.500000 2.500000 -12.500000
v 12.500000 2.500000 -12.500000
vt 0.000000 0.000000
vt 1.000000 0.000000
vt 0.000000 1.000000
vt 1.000000 1.000000
vt 0.000000 0.000000
vt 1.000000 0.000000
vt 1.000000 1.000000
vt 0.000000 1.000000
vt 0.000000 0.000000
vt 1.000000 0.000000
vt 1.000000 1.000000
vt 0.000000 1.000000
vt 0.000000 0.000000
vt 1.000000 0.000000
vt 1.000000 1.000000
vt 0.000000 1.000000
vt 0.000000 0.000000
vt 1.000000 0.000000
vt 1.000000 1.000000
vt 0.000000 1.000000
vn 0.000000 1.000000 0.000000
vn 0.000000 1.000000 0.000000
vn 0.000000 1.000000 0.000000
vn 0.000000 1.000000 0.000000
vn 0.000000 0.000000 -1.000000
vn 0.000000 0.000000 -1.000000
vn 0.000000 0.000000 -1.000000
vn 0.000000 0.000000 -1.000000
vn 1.000000 0.000000 0.000000
vn 1.000000 0.000000 0.000000
vn 1.000000 0.000000 0.000000
vn 1.000000 0.000000 0.000000
vn -1.000000 0.000000 0.000000
vn -1.000000 0.000000 0.000000
vn -1.000000 0.000000 0.000000
vn -1.000000 0.000000 0.000000
vn 0.000000 0.000000 1.000000
vn 0.000000 0.000000 1.000000
vn 0.000000 0.000000 1.000000
vn 0.000000 0.000000 1.000000
s 1
g pPlane1
usemtl initialShadingGroup
f 1/1/1 2/2/2 3/3/3
f 3/3/3 2/2/2 4/4/4
s 2
f 2/5/5 1/6/6 6/8/7
f 6/8/7 1/6/6 5/7/8
s 3
f 1/9/9 3/10/10 5/12/11
f 5/12/11 3/10/10 7/11/12
s 4
f 4/13/13 2/14/14 8/16/15
f 8/16/15 2/14/14 6/15/16
s 5
f 3/17/17 4/18/18 7/20/19
f 7/20/19 4/18/18 8/19/20
g default
v -12.500000 -0.000000 12.500000
v 12.500000 -0.000000 12.500000
v -12.500000 0.000000 -12.500000
v 12.500000 0.000000 -12.500000
v -12.500000 2.500000 12.500000
v 12.500000 2.500000 12.500000
v -12.500000 2.500000 -12.500000
v 12.500000 2.500000 -12.500000
vt 0.000000 0.000000
vt 1.000000 0.000000
vt 0.000000 1.000000
vt 1.000000 1.000000
vt 0.000000 0.000000
vt 1.000000 0.000000
vt 1.000000 1.000000
vt 0.000000 1.000000
vt 0.000000 0.000000
vt 1.000000 0.000000
vt 1.000000 1.000000
vt 0.000000 1.000000
vt 0.000000 0.000000
vt 1.000000 0.000000
vt 1.000000 1.000000
vt 0.000000 1.000000
vt 0.000000 0.000000
vt 1.000000 0.000000
vt 1.000000 1.000000
vt 0.000000 1.000000
vn 0.000000 1.000000 0.000000
vn 0.000000 1.000000 0.000000
vn 0.000000 1.000000 0.000000
vn 0.000000 1.000000 0.000000
vn 0.000000 0.000000 -1.000000
vn 0.000000 0.000000 -1.000000
vn 0.000000 0.000000 -1.000000
vn 0.000000 0.000000 -1.000000
vn 1.000000 0.000000 0.000000
vn 1.000000 0.000000 0.000000
vn 1.000000 0.000000 0.000000
vn 1.000000 0.000000 0.000000
vn -1.000000 0.000000 0.000000
vn -1.000000 0.000000 0.000000
vn -1.000000 0.000000 0.000000
vn -1.000000 0.000000 0.000000
vn 0.000000 0.000000 1.000000
vn 0.000000 0.000000 1.000000
vn 0.000000 0.000000 1.000000
vn 0.000000 0.000000 1.000000
s 1
g pPlane1
f 9/21/21 10/22/22 11/23/23
f 11/23/23 10/22/22 12/24/24
s 2
f 10/25/25 9/26/26 14/28/27
f 14/28/27 9/26/26 13/27/28
s 3
f 9/29/29 11/30/30 13/32/31
f 13/32/31 11/30/30 15/31/32
s 4
f 12/33/33 10/34/34 16/36/35
f 16/36/35 10/34/34 14/35/36
s 5
f 11/37/37 12/38/38 15/40/39
f 15/40/39 12/38/38 16/39/40
