# This file uses centimeters as units for non-parametric coordinates.

v -0.184832 0.227507 0.078850
v -0.184832 0.227507 -0.078849
v 0.184832 0.227507 -0.078849
v 0.184832 0.227507 0.078850
v -0.194804 0.264380 0.115955
v 0.194804 0.264380 0.115955
v 0.194804 0.654221 0.115955
v -0.194804 0.654221 0.115955
v 0.231910 0.274353 0.078850
v 0.231910 0.274353 -0.078849
v 0.231910 0.644249 -0.078849
v 0.231910 0.644249 0.078850
v 0.194804 0.264380 -0.115955
v -0.194804 0.264380 -0.115955
v -0.194804 0.654221 -0.115955
v 0.194804 0.654221 -0.115955
v -0.231910 0.274353 -0.078849
v -0.231910 0.274353 0.078850
v -0.231910 0.644249 0.078850
v -0.231910 0.644249 -0.078849
v -0.204777 0.254639 -0.105983
v 0.204777 0.254639 -0.105983
v 0.204777 0.254639 0.105983
v -0.204777 0.254639 0.105983
v -0.204777 0.664192 0.105983
v 0.204777 0.664192 0.105983
v 0.184832 0.691326 0.078850
v 0.000000 0.691326 0.078850
v -0.184832 0.691326 0.078850
v 0.204777 0.664192 -0.105983
v -0.204777 0.664192 -0.105983
v -0.184832 0.691326 -0.078849
v 0.000000 0.691326 -0.078849
v 0.184832 0.691326 -0.078849
v -0.040816 0.691326 0.038033
v -0.144016 0.691326 0.038033
v -0.040816 0.691326 -0.038033
v -0.144016 0.691326 -0.038033
v 0.144016 0.691326 0.038033
v 0.040816 0.691326 0.038033
v 0.144016 0.691326 -0.038033
v 0.040816 0.691326 -0.038033
v -0.064007 0.734463 0.014842
v -0.120825 0.734463 0.014842
v -0.064007 0.734463 -0.014842
v -0.120825 0.734463 -0.014842
v 0.120825 0.734463 0.014842
v 0.064007 0.734463 0.014842
v 0.120825 0.734463 -0.014842
v 0.064007 0.734463 -0.014842
v -0.064007 0.772495 -0.014842
v -0.064007 0.772495 0.014842
v 0.064007 0.772495 0.014842
v 0.064007 0.772495 -0.014842
vt 0.330000 0.020000
vt 0.330000 0.100000
vt 0.140000 0.100000
vt 0.140000 0.020000
vt 0.260000 0.270000
vt 0.910000 0.270000
vt 0.910000 0.910000
vt 0.260000 0.910000
vt 0.020000 0.010000
vt 0.100000 0.010000
vt 0.100000 0.190000
vt 0.020000 0.190000
vt 0.900000 0.910000
vt 0.900000 0.270000
vt 0.100000 0.350000
vt 0.020000 0.350000
vt 0.020000 0.160000
vt 0.100000 0.160000
vt 0.240000 0.930000
vt 0.920000 0.930000
vt 0.890000 0.990000
vt 0.280000 0.990000
vt 0.930000 0.250000
vt 0.250000 0.250000
vt 0.280000 0.180000
vt 0.890000 0.180000
vt 0.250000 0.930000
vt 0.930000 0.930000
vt 0.590000 0.990000
vt 0.920000 0.250000
vt 0.240000 0.250000
vt 0.580000 0.180000
vt 0.990000 0.280000
vt 0.990000 0.890000
vt 0.180000 0.890000
vt 0.180000 0.280000
vt 0.110000 0.020000
vt 0.130000 0.010000
vt 0.360000 0.100000
vt 0.340000 0.120000
vt 0.130000 0.120000
vt 0.110000 0.100000
vt 0.020000 0.230000
vt 0.000000 0.210000
vt 0.100000 0.130000
vt 0.110000 0.150000
vt 0.340000 0.010000
vt 0.360000 0.020000
vt 0.000000 0.150000
vt 0.020000 0.130000
vt 0.110000 0.210000
vt 0.100000 0.230000
vt 0.240000 0.020000
vt 0.210000 0.050000
vt 0.160000 0.050000
vt 0.240000 0.100000
vt 0.210000 0.080000
vt 0.160000 0.080000
vt 0.310000 0.050000
vt 0.260000 0.050000
vt 0.310000 0.080000
vt 0.260000 0.080000
vt 0.120000 0.130000
vt 0.170000 0.150000
vt 0.150000 0.170000
vt 0.120000 0.150000
vt 0.040000 0.180000
vt 0.080000 0.180000
vt 0.060000 0.200000
vt 0.050000 0.200000
vt 0.170000 0.160000
vt 0.120000 0.180000
vt 0.150000 0.140000
vt 0.080000 0.200000
vt 0.040000 0.200000
vt 0.050000 0.180000
vt 0.060000 0.180000
vt 0.190000 0.150000
vt 0.240000 0.130000
vt 0.240000 0.150000
vt 0.220000 0.170000
vt 0.240000 0.180000
vt 0.190000 0.160000
vt 0.220000 0.140000
vt 0.200000 0.070000
vt 0.200000 0.060000
vt 0.270000 0.060000
vt 0.270000 0.070000
vt 0.170000 0.070000
vt 0.170000 0.060000
vt 0.300000 0.060000
vt 0.300000 0.070000
vt 0.210000 0.170000
vt 0.150000 0.130000
vt 0.210000 0.130000
vt 0.260000 0.910000
vt 0.260000 0.270000
vt 0.260000 0.270000
vt 0.260000 0.910000
vt 0.890000 0.990000
vt 0.890000 0.990000
vt 0.890000 0.990000
vt 0.280000 0.990000
vt 0.260000 0.270000
vt 0.260000 0.270000
vt 0.280000 0.180000
vt 0.260000 0.270000
vt 0.280000 0.180000
vt 0.280000 0.180000
vt 0.890000 0.180000
vt 0.990000 0.280000
vt 0.990000 0.280000
vt 0.990000 0.890000
vt 0.990000 0.280000
vt 0.260000 0.910000
vt 0.180000 0.890000
vt 0.180000 0.890000
vt 0.180000 0.280000
vt 0.260000 0.910000
vt 0.180000 0.890000
vt 0.260000 0.910000
vt 0.260000 0.270000
vt 0.140000 0.020000
vt 0.140000 0.020000
vt 0.140000 0.100000
vt 0.140000 0.100000
vt 0.140000 0.020000
vt 0.140000 0.100000
vt 0.330000 0.020000
vt 0.330000 0.020000
vt 0.330000 0.100000
vt 0.330000 0.020000
vt 0.330000 0.100000
vt 0.330000 0.100000
vt 0.120000 0.150000
vt 0.120000 0.150000
vt 0.040000 0.180000
vt 0.080000 0.180000
vt 0.060000 0.200000
vt 0.060000 0.200000
vt 0.050000 0.200000
vt 0.040000 0.180000
vt 0.240000 0.150000
vt 0.080000 0.200000
vt 0.040000 0.200000
vt 0.050000 0.180000
vt 0.050000 0.180000
vt 0.060000 0.180000
vt 0.080000 0.200000
vt 0.200000 0.070000
vt 0.200000 0.060000
vt 0.270000 0.060000
vt 0.270000 0.060000
vt 0.270000 0.070000
vt 0.200000 0.070000
vt 0.200000 0.070000
vt 0.200000 0.060000
vt 0.200000 0.070000
vt 0.270000 0.060000
vt 0.270000 0.070000
vt 0.270000 0.060000
vt 0.150000 0.170000
vt 0.240000 0.150000
vt 0.120000 0.150000
vt 0.240000 0.150000
vn 0.000000 -1.000000 0.000000
vn 0.000000 -1.000000 0.000000
vn 0.000000 -1.000000 0.000000
vn 0.000000 -1.000000 0.000000
vn 0.000000 -1.000000 0.000000
vn 0.000000 -1.000000 0.000000
vn 0.000000 0.000000 1.000000
vn 0.000000 0.000000 1.000000
vn 0.000000 0.000000 1.000000
vn 0.000000 0.000000 1.000000
vn 0.000000 0.000000 1.000000
vn 0.000000 0.000000 1.000000
vn 1.000000 0.000000 0.000000
vn 1.000000 0.000000 0.000000
vn 1.000000 0.000000 0.000000
vn 1.000000 0.000000 0.000000
vn 1.000000 0.000000 0.000000
vn 1.000000 0.000000 0.000000
vn 0.000000 0.000000 -1.000000
vn 0.000000 0.000000 -1.000000
vn 0.000000 0.000000 -1.000000
vn 0.000000 0.000000 -1.000000
vn 0.000000 0.000000 -1.000000
vn 0.000000 0.000000 -1.000000
vn -1.000000 0.000000 0.000000
vn -1.000000 0.000000 0.000000
vn -1.000000 0.000000 0.000000
vn -1.000000 0.000000 0.000000
vn -1.000000 0.000000 0.000000
vn -1.000000 0.000000 0.000000
vn 0.000000 -0.707107 -0.707107
vn 0.000000 -0.707107 -0.707107
vn 0.000000 -0.707107 -0.707107
vn 0.000000 -0.707107 -0.707107
vn 0.000000 -0.707107 -0.707107
vn 0.000000 -0.707107 -0.707107
vn 0.000000 -0.707107 -0.707107
vn 0.000000 -0.707107 -0.707107
vn 0.000000 -0.707107 -0.707107
vn 0.000000 -0.707107 -0.707107
vn 0.000000 -0.707107 -0.707107
vn 0.000000 -0.707107 -0.707107
vn 0.000000 -0.707107 0.707107
vn 0.000000 -0.707107 0.707107
vn 0.000000 -0.707107 0.707107
vn 0.000000 -0.707107 0.707107
vn 0.000000 -0.707107 0.707107
vn 0.000000 -0.707107 0.707107
vn 0.000000 -0.707107 0.707107
vn 0.000000 -0.707107 0.707107
vn 0.000000 -0.707107 0.707107
vn 0.000000 -0.707107 0.707107
vn 0.000000 -0.707107 0.707107
vn 0.000000 -0.707107 0.707107
vn 0.000000 0.707107 0.707107
vn 0.000000 0.707107 0.707107
vn 0.000000 0.707107 0.707107
vn 0.000000 0.707107 0.707107
vn 0.000000 0.707107 0.707107
vn 0.000000 0.707107 0.707107
vn 0.000000 0.707107 0.707107
vn 0.000000 0.707107 0.707107
vn 0.000000 0.707107 0.707107
vn 0.000000 0.707107 0.707107
vn 0.000000 0.707107 0.707107
vn 0.000000 0.707107 0.707107
vn 0.000000 0.707107 0.707107
vn 0.000000 0.707107 0.707107
vn 0.000000 0.707107 0.707107
vn 0.000000 0.707107 -0.707107
vn 0.000000 0.707107 -0.707107
vn 0.000000 0.707107 -0.707107
vn 0.000000 0.707107 -0.707107
vn 0.000000 0.707107 -0.707107
vn 0.000000 0.707107 -0.707107
vn 0.000000 0.707107 -0.707107
vn 0.000000 0.707107 -0.707107
vn 0.000000 0.707107 -0.707107
vn 0.000000 0.707107 -0.707107
vn 0.000000 0.707107 -0.707107
vn 0.000000 0.707107 -0.707107
vn 0.000000 0.707107 -0.707107
vn 0.000000 0.707107 -0.707107
vn 0.000000 0.707107 -0.707107
vn 0.707107 0.000000 0.707107
vn 0.707107 0.000000 0.707107
vn 0.707107 0.000000 0.707107
vn 0.707107 0.000000 0.707107
vn 0.707107 0.000000 0.707107
vn 0.707107 0.000000 0.707107
vn 0.707107 0.000000 0.707107
vn 0.707107 0.000000 0.707107
vn 0.707107 0.000000 0.707107
vn 0.707107 0.000000 0.707107
vn 0.707107 0.000000 0.707107
vn 0.707107 0.000000 0.707107
vn -0.707107 0.000000 0.707107
vn -0.707107 0.000000 0.707107
vn -0.707107 0.000000 0.707107
vn -0.707107 0.000000 0.707107
vn -0.707107 0.000000 0.707107
vn -0.707107 0.000000 0.707107
vn -0.707107 0.000000 0.707107
vn -0.707107 0.000000 0.707107
vn -0.707107 0.000000 0.707107
vn -0.707107 0.000000 0.707107
vn -0.707107 0.000000 0.707107
vn -0.707107 0.000000 0.707107
vn 0.707107 0.000000 -0.707107
vn 0.707107 0.000000 -0.707107
vn 0.707107 0.000000 -0.707107
vn 0.707107 0.000000 -0.707107
vn 0.707107 0.000000 -0.707107
vn 0.707107 0.000000 -0.707107
vn 0.707107 0.000000 -0.707107
vn 0.707107 0.000000 -0.707107
vn 0.707107 0.000000 -0.707107
vn 0.707107 0.000000 -0.707107
vn 0.707107 0.000000 -0.707107
vn 0.707107 0.000000 -0.707107
vn -0.707107 0.000000 -0.707107
vn -0.707107 0.000000 -0.707107
vn -0.707107 0.000000 -0.707107
vn -0.707107 0.000000 -0.707107
vn -0.707107 0.000000 -0.707107
vn -0.707107 0.000000 -0.707107
vn -0.707107 0.000000 -0.707107
vn -0.707107 0.000000 -0.707107
vn -0.707107 0.000000 -0.707107
vn -0.707107 0.000000 -0.707107
vn -0.707107 0.000000 -0.707107
vn -0.707107 0.000000 -0.707107
vn 0.705848 -0.705848 0.059649
vn 0.694072 -0.694072 0.191121
vn 0.705848 -0.705848 0.059649
vn -0.705848 -0.705848 -0.059649
vn -0.705848 -0.705848 -0.059649
vn -0.694072 -0.694072 -0.191121
vn 0.705848 -0.705848 -0.059649
vn 0.694072 -0.694072 -0.191121
vn 0.705848 -0.705848 -0.059649
vn 0.705848 0.705848 0.059649
vn 0.705848 0.705848 0.059649
vn 0.694072 0.694072 0.191121
vn -0.705848 0.705848 -0.059649
vn -0.705848 0.705848 -0.059649
vn -0.694072 0.694072 -0.191121
vn -0.694072 -0.694072 0.191121
vn -0.705848 -0.705848 0.059649
vn -0.705848 -0.705848 0.059649
vn -0.694072 0.694072 0.191121
vn -0.705848 0.705848 0.059649
vn -0.705848 0.705848 0.059649
vn 0.705848 0.705848 -0.059649
vn 0.694072 0.694072 -0.191121
vn 0.705848 0.705848 -0.059649
vn -0.705848 -0.705848 0.059649
vn -0.705848 -0.705848 0.059649
vn -0.705848 -0.705848 -0.059649
vn -0.705848 -0.705848 -0.059649
vn -0.705848 -0.705848 -0.059649
vn -0.705848 -0.705848 0.059649
vn 0.705848 -0.705848 -0.059649
vn 0.705848 -0.705848 -0.059649
vn 0.705848 -0.705848 0.059649
vn 0.705848 -0.705848 0.059649
vn 0.705848 -0.705848 0.059649
vn 0.705848 -0.705848 -0.059649
vn 0.705848 0.705848 0.059649
vn 0.705848 0.705848 0.059649
vn 0.705848 0.705848 -0.059649
vn 0.705848 0.705848 -0.059649
vn 0.705848 0.705848 -0.059649
vn 0.705848 0.705848 0.059649
vn -0.705848 0.705848 -0.059649
vn -0.705848 0.705848 -0.059649
vn -0.705848 0.705848 0.059649
vn -0.705848 0.705848 0.059649
vn -0.705848 0.705848 0.059649
vn -0.705848 0.705848 -0.059649
vn 0.000000 1.000000 0.000000
vn 0.000000 1.000000 0.000000
vn 0.000000 1.000000 0.000000
vn 0.000000 1.000000 0.000000
vn 0.000000 1.000000 0.000000
vn 0.000000 1.000000 0.000000
vn 0.000000 1.000000 0.000000
vn 0.000000 1.000000 0.000000
vn 0.000000 1.000000 0.000000
vn 0.000000 1.000000 0.000000
vn 0.000000 1.000000 0.000000
vn 0.000000 1.000000 0.000000
vn 0.000000 1.000000 0.000000
vn 0.000000 1.000000 0.000000
vn 0.000000 1.000000 0.000000
vn 0.000000 1.000000 0.000000
vn 0.000000 1.000000 0.000000
vn 0.000000 1.000000 0.000000
vn 0.000000 1.000000 0.000000
vn 0.000000 1.000000 0.000000
vn 0.000000 1.000000 0.000000
vn 0.000000 1.000000 0.000000
vn 0.000000 1.000000 0.000000
vn 0.000000 1.000000 0.000000
vn 0.000000 1.000000 0.000000
vn 0.000000 1.000000 0.000000
vn 0.000000 1.000000 0.000000
vn 0.000000 1.000000 0.000000
vn 0.000000 1.000000 0.000000
vn 0.000000 1.000000 0.000000
vn 0.000000 1.000000 0.000000
vn 0.000000 1.000000 0.000000
vn 0.000000 1.000000 0.000000
vn 0.000000 1.000000 0.000000
vn 0.000000 1.000000 0.000000
vn 0.000000 1.000000 0.000000
vn 0.000000 1.000000 0.000000
vn 0.000000 1.000000 0.000000
vn 0.000000 1.000000 0.000000
vn 0.000000 1.000000 0.000000
vn 0.000000 1.000000 0.000000
vn 0.000000 1.000000 0.000000
vn 0.000000 1.000000 0.000000
vn 0.000000 1.000000 0.000000
vn 0.000000 1.000000 0.000000
vn 0.000000 1.000000 0.000000
vn 0.000000 1.000000 0.000000
vn 0.000000 1.000000 0.000000
vn 0.000000 0.471108 0.882075
vn 0.000000 0.471108 0.882075
vn 0.000000 0.471108 0.882075
vn 0.000000 0.471108 0.882075
vn 0.000000 0.471108 0.882075
vn 0.000000 0.471108 0.882075
vn 0.882075 0.471108 0.000000
vn 0.882075 0.471108 0.000000
vn 0.882075 0.471108 0.000000
vn 0.882075 0.471108 0.000000
vn 0.882075 0.471108 0.000000
vn 0.882075 0.471108 0.000000
vn 0.000000 0.471108 -0.882075
vn 0.000000 0.471108 -0.882075
vn 0.000000 0.471108 -0.882075
vn 0.000000 0.471108 -0.882075
vn 0.000000 0.471108 -0.882075
vn 0.000000 0.471108 -0.882075
vn -0.882075 0.471108 0.000000
vn -0.882075 0.471108 0.000000
vn -0.882075 0.471108 0.000000
vn -0.882075 0.471108 0.000000
vn -0.882075 0.471108 0.000000
vn -0.882075 0.471108 0.000000
vn 0.000000 0.471108 0.882075
vn 0.000000 0.471108 0.882075
vn 0.000000 0.471108 0.882075
vn 0.000000 0.471108 0.882075
vn 0.000000 0.471108 0.882075
vn 0.000000 0.471108 0.882075
vn 0.882075 0.471108 0.000000
vn 0.882075 0.471108 0.000000
vn 0.882075 0.471108 0.000000
vn 0.882075 0.471108 0.000000
vn 0.882075 0.471108 0.000000
vn 0.882075 0.471108 0.000000
vn 0.000000 0.471108 -0.882075
vn 0.000000 0.471108 -0.882075
vn 0.000000 0.471108 -0.882075
vn 0.000000 0.471108 -0.882075
vn 0.000000 0.471108 -0.882075
vn 0.000000 0.471108 -0.882075
vn -0.882075 0.471108 0.000000
vn -0.882075 0.471108 0.000000
vn -0.882075 0.471108 0.000000
vn -0.882075 0.471108 0.000000
vn -0.882075 0.471108 0.000000
vn -0.882075 0.471108 0.000000
vn 0.000000 -1.000000 0.000000
vn 0.000000 -1.000000 0.000000
vn 0.000000 -1.000000 0.000000
vn 0.000000 -1.000000 0.000000
vn 0.000000 -1.000000 0.000000
vn 0.000000 -1.000000 0.000000
vn 0.000000 1.000000 0.000000
vn 0.000000 1.000000 0.000000
vn 0.000000 1.000000 0.000000
vn 0.000000 1.000000 0.000000
vn 0.000000 1.000000 0.000000
vn 0.000000 1.000000 0.000000
vn -0.559301 0.828964 0.000000
vn -0.559301 0.828964 0.000000
vn -0.559301 0.828964 0.000000
vn -0.559301 0.828964 0.000000
vn -0.559301 0.828964 0.000000
vn -0.559301 0.828964 0.000000
vn 0.559301 0.828964 0.000000
vn 0.559301 0.828964 0.000000
vn 0.559301 0.828964 0.000000
vn 0.559301 0.828964 0.000000
vn 0.559301 0.828964 0.000000
vn 0.559301 0.828964 0.000000
vn 0.000000 0.000000 1.000000
vn 0.000000 0.000000 1.000000
vn 0.000000 0.000000 1.000000
vn 0.000000 0.000000 1.000000
vn 0.000000 0.000000 1.000000
vn 0.000000 0.000000 1.000000
vn 0.000000 0.000000 -1.000000
vn 0.000000 0.000000 -1.000000
vn 0.000000 0.000000 -1.000000
vn 0.000000 0.000000 -1.000000
vn 0.000000 0.000000 -1.000000
vn 0.000000 0.000000 -1.000000
f 1/1/1 2/2/2 3/3/3
f 3/3/4 4/4/5 1/1/6
f 5/5/7 6/6/8 7/7/9
f 7/7/10 8/8/11 5/5/12
f 9/9/13 10/10/14 11/11/15
f 11/11/16 12/12/17 9/9/18
f 13/13/19 14/96/20 15/97/21
f 15/98/22 16/14/23 13/13/24
f 17/15/25 18/16/26 19/17/27
f 19/17/28 20/18/29 17/15/30
f 21/19/31 14/99/32 13/13/33
f 13/13/34 22/20/35 3/21/36
f 21/19/37 13/13/38 3/21/39
f 2/22/40 21/19/41 3/21/42
f 23/23/43 6/6/44 5/5/45
f 5/5/46 24/24/47 1/25/48
f 23/23/49 5/5/50 1/25/51
f 4/26/52 23/23/53 1/25/54
f 25/27/55 8/8/56 7/7/57
f 7/7/58 26/28/59 27/100/60
f 25/27/61 7/7/62 27/101/63
f 25/27/64 27/102/65 28/29/66
f 29/103/67 25/27/68 28/29/69
f 30/30/70 16/14/71 15/104/72
f 15/105/73 31/31/74 32/106/75
f 30/30/76 15/107/77 32/108/78
f 30/30/79 32/109/80 33/32/81
f 34/110/82 30/30/83 33/32/84
f 6/6/85 23/23/86 9/33/87
f 9/33/88 12/34/89 26/28/90
f 6/6/91 9/33/92 26/28/93
f 6/6/94 26/28/95 7/7/96
f 8/8/97 25/27/98 19/35/99
f 19/35/100 18/36/101 24/24/102
f 8/8/103 19/35/104 24/24/105
f 8/8/106 24/24/107 5/5/108
f 22/20/109 13/13/110 16/14/111
f 16/14/112 30/30/113 11/111/114
f 22/20/115 16/14/116 11/112/117
f 10/113/118 22/20/119 11/114/120
f 14/115/121 21/19/122 17/116/123
f 17/117/124 20/118/125 31/31/126
f 14/119/127 17/120/128 31/31/129
f 14/121/130 31/31/131 15/122/132
f 9/37/133 23/38/134 4/4/135
f 2/2/136 17/39/137 21/40/138
f 3/3/139 22/41/140 10/42/141
f 12/12/142 27/43/143 26/44/144
f 20/18/145 32/45/146 31/46/147
f 24/47/148 18/48/149 1/1/150
f 25/49/151 29/50/152 19/17/153
f 11/11/154 30/51/155 34/52/156
f 1/1/157 18/48/158 17/39/159
f 17/39/160 2/2/161 1/1/162
f 3/3/163 10/42/164 9/37/165
f 9/37/166 4/4/167 3/3/168
f 27/43/169 12/12/170 11/11/171
f 11/11/172 34/52/173 27/43/174
f 32/45/175 20/18/176 19/17/177
f 19/17/178 29/50/179 32/45/180
f 29/123/181 28/53/182 35/54/183
f 35/54/184 36/55/185 29/124/186
f 28/53/187 33/56/188 37/57/189
f 37/57/190 35/54/191 28/53/192
f 33/56/193 32/125/194 38/58/195
f 38/58/196 37/57/197 33/56/198
f 32/126/199 29/127/200 36/55/201
f 36/55/202 38/58/203 32/128/204
f 28/53/205 27/129/206 39/59/207
f 39/59/208 40/60/209 28/53/210
f 27/130/211 34/131/212 41/61/213
f 41/61/214 39/59/215 27/132/216
f 34/133/217 33/56/218 42/62/219
f 42/62/220 41/61/221 34/134/222
f 33/56/223 28/53/224 40/60/225
f 40/60/226 42/62/227 33/56/228
f 36/63/229 35/64/230 43/65/231
f 43/65/232 44/66/233 36/63/234
f 35/67/235 37/68/236 45/69/237
f 45/69/238 43/70/239 35/67/240
f 37/71/241 38/72/242 46/135/243
f 46/136/244 45/73/245 37/71/246
f 38/74/247 36/75/248 44/76/249
f 44/76/250 46/77/251 38/74/252
f 40/78/253 39/79/254 47/80/255
f 47/80/256 48/81/257 40/78/258
f 39/137/259 41/138/260 49/139/261
f 49/140/262 47/141/263 39/142/264
f 41/82/265 42/83/266 50/84/267
f 50/84/268 49/143/269 41/82/270
f 42/144/271 40/145/272 48/146/273
f 48/147/274 50/148/275 42/149/276
f 43/85/277 45/86/278 50/87/279
f 50/87/280 48/88/281 43/85/282
f 51/150/283 52/151/284 53/152/285
f 53/153/286 54/154/287 51/155/288
f 51/156/289 46/89/290 44/90/291
f 44/90/292 52/157/293 51/158/294
f 53/159/295 47/91/296 49/92/297
f 49/92/298 54/160/299 53/161/300
f 53/93/301 52/162/302 44/66/303
f 44/66/304 47/80/305 53/93/306
f 49/163/307 46/164/308 51/94/309
f 51/94/310 54/95/311 49/165/312
